<?xml version="1.0" encoding="UTF-8"?>
<svg width="32" height="32" viewBox="0 0 32 32" fill="none" xmlns="http://www.w3.org/2000/svg">
  <rect width="32" height="32" rx="8" fill="white"/>
  <path d="M8 16C8 11.5817 11.5817 8 16 8C20.4183 8 24 11.5817 24 16C24 20.4183 20.4183 24 16 24" stroke="black" stroke-width="2" stroke-linecap="round"/>
  <path d="M16 24C11.5817 24 8 20.4183 8 16C8 11.5817 11.5817 8 16 8" stroke="black" stroke-width="2" stroke-linecap="round"/>
  <path d="M16 8L20 16L16 24L12 16L16 8Z" fill="black"/>
  <path d="M16 12L18 16L16 20L14 16L16 12Z" fill="white"/>
  <path d="M16 14L17 16L16 18L15 16L16 14Z" fill="black"/>
  <path d="M16 15L16.5 16L16 17L15.5 16L16 15Z" fill="white"/>
</svg> 